<?xml version="1.0" encoding="UTF-8" standalone="no"?><svg xmlns="http://www.w3.org/2000/svg" xmlns:xlink="http://www.w3.org/1999/xlink" contentScriptType="application/ecmascript" contentStyleType="text/css" height="365px" preserveAspectRatio="none" style="width:1124px;height:365px;" version="1.1" viewBox="0 0 1124 365" width="1124px" zoomAndPan="magnify"><defs><filter height="300%" id="ff3nptqwzyt1t" width="300%" x="-1" y="-1"><feGaussianBlur result="blurOut" stdDeviation="2.0"/><feColorMatrix in="blurOut" result="blurOut2" type="matrix" values="0 0 0 0 0 0 0 0 0 0 0 0 0 0 0 0 0 0 .4 0"/><feOffset dx="4.0" dy="4.0" in="blurOut2" result="blurOut3"/><feBlend in="SourceGraphic" in2="blurOut3" mode="normal"/></filter></defs><g><!--MD5=[fc539fa3f3b7db9b31467e896d367b3b]
class Device--><rect fill="#FEFECE" filter="url(#ff3nptqwzyt1t)" height="214.4609" id="Device" style="stroke: #A80036; stroke-width: 1.5;" width="575" x="173" y="7"/><ellipse cx="435.75" cy="23" fill="#ADD1B2" rx="11" ry="11" style="stroke: #A80036; stroke-width: 1.0;"/><path d="M438.7188,28.6406 Q438.1406,28.9375 437.5,29.0781 Q436.8594,29.2344 436.1563,29.2344 Q433.6563,29.2344 432.3281,27.5938 Q431.0156,25.9375 431.0156,22.8125 Q431.0156,19.6875 432.3281,18.0313 Q433.6563,16.375 436.1563,16.375 Q436.8594,16.375 437.5,16.5313 Q438.1563,16.6875 438.7188,16.9844 L438.7188,19.7031 Q438.0938,19.125 437.5,18.8594 Q436.9063,18.5781 436.2813,18.5781 Q434.9375,18.5781 434.25,19.6563 Q433.5625,20.7188 433.5625,22.8125 Q433.5625,24.9063 434.25,25.9844 Q434.9375,27.0469 436.2813,27.0469 Q436.9063,27.0469 437.5,26.7813 Q438.0938,26.5 438.7188,25.9219 L438.7188,28.6406 Z "/><text fill="#000000" font-family="sans-serif" font-size="12" lengthAdjust="spacingAndGlyphs" textLength="41" x="456.25" y="27.1543">Device</text><line style="stroke: #A80036; stroke-width: 1.5;" x1="174" x2="747" y1="39" y2="39"/><ellipse cx="184" cy="50" fill="none" rx="3" ry="3" style="stroke: #038048; stroke-width: 1.0;"/><text fill="#000000" font-family="sans-serif" font-size="11" lengthAdjust="spacingAndGlyphs" textLength="146" x="193" y="53.2104">rcv_msg[MAX_LINE] : char</text><ellipse cx="184" cy="62.8047" fill="none" rx="3" ry="3" style="stroke: #038048; stroke-width: 1.0;"/><text fill="#000000" font-family="sans-serif" font-size="11" lengthAdjust="spacingAndGlyphs" textLength="100" x="193" y="66.0151">host_ip[15] : char</text><line style="stroke: #A80036; stroke-width: 1.5;" x1="174" x2="747" y1="72.6094" y2="72.6094"/><ellipse cx="184" cy="83.6094" fill="#84BE84" rx="3" ry="3" style="stroke: #038048; stroke-width: 1.0;"/><text fill="#000000" font-family="sans-serif" font-size="11" lengthAdjust="spacingAndGlyphs" textLength="45" x="193" y="86.8198">Device()</text><ellipse cx="184" cy="96.4141" fill="#84BE84" rx="3" ry="3" style="stroke: #038048; stroke-width: 1.0;"/><text fill="#000000" font-family="sans-serif" font-size="11" lengthAdjust="spacingAndGlyphs" textLength="273" x="193" y="99.6245">ip_to_number(a : char, b : char, c : char): string</text><ellipse cx="184" cy="109.2188" fill="#84BE84" rx="3" ry="3" style="stroke: #038048; stroke-width: 1.0;"/><text fill="#000000" font-family="sans-serif" font-size="11" lengthAdjust="spacingAndGlyphs" textLength="85" x="193" y="112.4292">enter_ip(): void</text><ellipse cx="184" cy="122.0234" fill="#84BE84" rx="3" ry="3" style="stroke: #038048; stroke-width: 1.0;"/><text fill="#000000" font-family="sans-serif" font-size="11" lengthAdjust="spacingAndGlyphs" textLength="59" x="193" y="125.2339">exit(): void</text><ellipse cx="184" cy="134.8281" fill="#84BE84" rx="3" ry="3" style="stroke: #038048; stroke-width: 1.0;"/><text fill="#000000" font-family="sans-serif" font-size="11" lengthAdjust="spacingAndGlyphs" textLength="73" x="193" y="138.0386">get_ip(): void</text><ellipse cx="184" cy="147.6328" fill="#84BE84" rx="3" ry="3" style="stroke: #038048; stroke-width: 1.0;"/><text fill="#000000" font-family="sans-serif" font-size="11" lengthAdjust="spacingAndGlyphs" textLength="158" x="193" y="150.8433">single(*game : Game): bool</text><ellipse cx="184" cy="160.4375" fill="#84BE84" rx="3" ry="3" style="stroke: #038048; stroke-width: 1.0;"/><text fill="#000000" font-family="sans-serif" font-size="11" lengthAdjust="spacingAndGlyphs" textLength="188" x="193" y="163.6479">menu(texts : vector&lt;string&gt;): int</text><ellipse cx="184" cy="173.2422" fill="#84BE84" rx="3" ry="3" style="stroke: #038048; stroke-width: 1.0;"/><text fill="#000000" font-family="sans-serif" font-size="11" lengthAdjust="spacingAndGlyphs" textLength="146" x="193" y="176.4526">error(s : std::string): void</text><ellipse cx="184" cy="186.0469" fill="#84BE84" rx="3" ry="3" style="stroke: #038048; stroke-width: 1.0;"/><text fill="#000000" font-family="sans-serif" font-size="11" lengthAdjust="spacingAndGlyphs" textLength="549" x="193" y="189.2573">server(*game : Game, &amp;server_socket : int, &amp;connected : bool, &amp;leave : bool, player : int): void</text><ellipse cx="184" cy="198.8516" fill="#84BE84" rx="3" ry="3" style="stroke: #038048; stroke-width: 1.0;"/><text fill="#000000" font-family="sans-serif" font-size="11" lengthAdjust="spacingAndGlyphs" textLength="149" x="193" y="202.062">host(*game : Game): bool</text><ellipse cx="184" cy="211.6563" fill="#84BE84" rx="3" ry="3" style="stroke: #038048; stroke-width: 1.0;"/><text fill="#000000" font-family="sans-serif" font-size="11" lengthAdjust="spacingAndGlyphs" textLength="144" x="193" y="214.8667">join(*game : Game): bool</text><!--MD5=[292033ffe4750640675b59034298e578]
class Display--><rect fill="#FEFECE" filter="url(#ff3nptqwzyt1t)" height="48" id="Display" style="stroke: #A80036; stroke-width: 1.5;" width="76" x="422.5" y="298"/><ellipse cx="437.5" cy="314" fill="#ADD1B2" rx="11" ry="11" style="stroke: #A80036; stroke-width: 1.0;"/><path d="M440.4688,319.6406 Q439.8906,319.9375 439.25,320.0781 Q438.6094,320.2344 437.9063,320.2344 Q435.4063,320.2344 434.0781,318.5938 Q432.7656,316.9375 432.7656,313.8125 Q432.7656,310.6875 434.0781,309.0313 Q435.4063,307.375 437.9063,307.375 Q438.6094,307.375 439.25,307.5313 Q439.9063,307.6875 440.4688,307.9844 L440.4688,310.7031 Q439.8438,310.125 439.25,309.8594 Q438.6563,309.5781 438.0313,309.5781 Q436.6875,309.5781 436,310.6563 Q435.3125,311.7188 435.3125,313.8125 Q435.3125,315.9063 436,316.9844 Q436.6875,318.0469 438.0313,318.0469 Q438.6563,318.0469 439.25,317.7813 Q439.8438,317.5 440.4688,316.9219 L440.4688,319.6406 Z "/><text fill="#000000" font-family="sans-serif" font-size="12" lengthAdjust="spacingAndGlyphs" textLength="44" x="451.5" y="318.1543">Display</text><line style="stroke: #A80036; stroke-width: 1.5;" x1="423.5" x2="497.5" y1="330" y2="330"/><line style="stroke: #A80036; stroke-width: 1.5;" x1="423.5" x2="497.5" y1="338" y2="338"/><!--MD5=[7164e02e36c896aae9802f99e5df3120]
class cpp--><rect fill="#FEFECE" filter="url(#ff3nptqwzyt1t)" height="48" id="cpp" style="stroke: #A80036; stroke-width: 1.5;" width="55" x="7" y="90"/><ellipse cx="22" cy="106" fill="#ADD1B2" rx="11" ry="11" style="stroke: #A80036; stroke-width: 1.0;"/><path d="M24.9688,111.6406 Q24.3906,111.9375 23.75,112.0781 Q23.1094,112.2344 22.4063,112.2344 Q19.9063,112.2344 18.5781,110.5938 Q17.2656,108.9375 17.2656,105.8125 Q17.2656,102.6875 18.5781,101.0313 Q19.9063,99.375 22.4063,99.375 Q23.1094,99.375 23.75,99.5313 Q24.4063,99.6875 24.9688,99.9844 L24.9688,102.7031 Q24.3438,102.125 23.75,101.8594 Q23.1563,101.5781 22.5313,101.5781 Q21.1875,101.5781 20.5,102.6563 Q19.8125,103.7188 19.8125,105.8125 Q19.8125,107.9063 20.5,108.9844 Q21.1875,110.0469 22.5313,110.0469 Q23.1563,110.0469 23.75,109.7813 Q24.3438,109.5 24.9688,108.9219 L24.9688,111.6406 Z "/><text fill="#000000" font-family="sans-serif" font-size="12" lengthAdjust="spacingAndGlyphs" textLength="23" x="36" y="110.1543">cpp</text><line style="stroke: #A80036; stroke-width: 1.5;" x1="8" x2="61" y1="122" y2="122"/><line style="stroke: #A80036; stroke-width: 1.5;" x1="8" x2="61" y1="130" y2="130"/><!--MD5=[8e3b26001ed7fc73d74731e9849c2493]
class h--><rect fill="#FEFECE" filter="url(#ff3nptqwzyt1t)" height="48" id="h" style="stroke: #A80036; stroke-width: 1.5;" width="40" x="97.5" y="90"/><ellipse cx="112.5" cy="106" fill="#ADD1B2" rx="11" ry="11" style="stroke: #A80036; stroke-width: 1.0;"/><path d="M115.4688,111.6406 Q114.8906,111.9375 114.25,112.0781 Q113.6094,112.2344 112.9063,112.2344 Q110.4063,112.2344 109.0781,110.5938 Q107.7656,108.9375 107.7656,105.8125 Q107.7656,102.6875 109.0781,101.0313 Q110.4063,99.375 112.9063,99.375 Q113.6094,99.375 114.25,99.5313 Q114.9063,99.6875 115.4688,99.9844 L115.4688,102.7031 Q114.8438,102.125 114.25,101.8594 Q113.6563,101.5781 113.0313,101.5781 Q111.6875,101.5781 111,102.6563 Q110.3125,103.7188 110.3125,105.8125 Q110.3125,107.9063 111,108.9844 Q111.6875,110.0469 113.0313,110.0469 Q113.6563,110.0469 114.25,109.7813 Q114.8438,109.5 115.4688,108.9219 L115.4688,111.6406 Z "/><text fill="#000000" font-family="sans-serif" font-size="12" lengthAdjust="spacingAndGlyphs" textLength="8" x="126.5" y="110.1543">h</text><line style="stroke: #A80036; stroke-width: 1.5;" x1="98.5" x2="136.5" y1="122" y2="122"/><line style="stroke: #A80036; stroke-width: 1.5;" x1="98.5" x2="136.5" y1="130" y2="130"/><!--MD5=[be996cdb8e6bf2fc7cb89c555f2cd144]
class Entity--><rect fill="#FEFECE" filter="url(#ff3nptqwzyt1t)" height="99.2188" id="Entity" style="stroke: #A80036; stroke-width: 1.5;" width="322" x="783.5" y="64.5"/><ellipse cx="922.75" cy="80.5" fill="#ADD1B2" rx="11" ry="11" style="stroke: #A80036; stroke-width: 1.0;"/><path d="M925.7188,86.1406 Q925.1406,86.4375 924.5,86.5781 Q923.8594,86.7344 923.1563,86.7344 Q920.6563,86.7344 919.3281,85.0938 Q918.0156,83.4375 918.0156,80.3125 Q918.0156,77.1875 919.3281,75.5313 Q920.6563,73.875 923.1563,73.875 Q923.8594,73.875 924.5,74.0313 Q925.1563,74.1875 925.7188,74.4844 L925.7188,77.2031 Q925.0938,76.625 924.5,76.3594 Q923.9063,76.0781 923.2813,76.0781 Q921.9375,76.0781 921.25,77.1563 Q920.5625,78.2188 920.5625,80.3125 Q920.5625,82.4063 921.25,83.4844 Q921.9375,84.5469 923.2813,84.5469 Q923.9063,84.5469 924.5,84.2813 Q925.0938,84 925.7188,83.4219 L925.7188,86.1406 Z "/><text fill="#000000" font-family="sans-serif" font-size="12" lengthAdjust="spacingAndGlyphs" textLength="35" x="943.25" y="84.6543">Entity</text><line style="stroke: #A80036; stroke-width: 1.5;" x1="784.5" x2="1104.5" y1="96.5" y2="96.5"/><ellipse cx="794.5" cy="107.5" fill="none" rx="3" ry="3" style="stroke: #038048; stroke-width: 1.0;"/><text fill="#000000" font-family="sans-serif" font-size="11" lengthAdjust="spacingAndGlyphs" textLength="83" x="803.5" y="110.7104">field_1 : String</text><ellipse cx="794.5" cy="120.3047" fill="none" rx="3" ry="3" style="stroke: #038048; stroke-width: 1.0;"/><text fill="#000000" font-family="sans-serif" font-size="11" lengthAdjust="spacingAndGlyphs" textLength="66" x="803.5" y="123.5151">field_2 : i32</text><line style="stroke: #A80036; stroke-width: 1.5;" x1="784.5" x2="1104.5" y1="130.1094" y2="130.1094"/><rect fill="#F24D5C" height="6" style="stroke: #C82930; stroke-width: 1.0;" width="6" x="791.5" y="138.1094"/><text fill="#000000" font-family="sans-serif" font-size="11" lengthAdjust="spacingAndGlyphs" textLength="88" x="803.5" y="144.3198">render(): String</text><rect fill="#F24D5C" height="6" style="stroke: #C82930; stroke-width: 1.0;" width="6" x="791.5" y="150.9141"/><text fill="#000000" font-family="sans-serif" font-size="11" lengthAdjust="spacingAndGlyphs" textLength="296" x="803.5" y="157.1245">render_dependencies(source : Vec&lt;String&gt;): String</text><!--MD5=[907265fe0172024a82cc9b5e19adc6bc]
link Device to Display--><path d="M460.5,221.02 C460.5,247.51 460.5,273.74 460.5,292.68 " fill="none" id="Device-&gt;Display" style="stroke: #A80036; stroke-width: 1.0;"/><polygon fill="#A80036" points="460.5,297.82,464.5,288.82,460.5,292.82,456.5,288.82,460.5,297.82" style="stroke: #A80036; stroke-width: 1.0;"/><text fill="#000000" font-family="sans-serif" font-size="13" lengthAdjust="spacingAndGlyphs" textLength="44" x="461.5" y="264.0669">display</text><!--MD5=[a96683c120c760b6e6ec193513b3508b]
link cpp to h--><path d="M62.06,114 C73.75,114 85.45,114 97.14,114 " fill="none" id="cpp-h" style="stroke: #A80036; stroke-width: 1.0; stroke-dasharray: 7.0,7.0;"/><!--MD5=[9914b4ceb5196435bd69bfc05b2054a3]
@startuml

class Device {
+rcv_msg[MAX_LINE] : char
+host_ip[15] : char
+Device()
+ip_to_number(a : char, b : char, c : char): string
+enter_ip(): void
+exit(): void
+get_ip(): void
+single(*game : Game): bool
+menu(texts : vector<string>): int
+error(s : std::string): void
+server(*game : Game, &server_socket : int, &connected : bool, &leave : bool, player : int): void
+host(*game : Game): bool
+join(*game : Game): bool
}
Device - -> Display : display

cpp.h

class Entity {
+field_1 : String
+field_2 : i32
-render(): String
-render_dependencies(source : Vec<String>): String
}

@enduml

PlantUML version 1.2020.15(Sun Jun 28 13:39:45 CEST 2020)
(GPL source distribution)
Java Runtime: OpenJDK Runtime Environment
JVM: OpenJDK 64-Bit Server VM
Default Encoding: UTF-8
Language: en
Country: US
--></g></svg>